<?xml version="1.0" encoding="utf-8"?>
<!-- Generator: Adobe Illustrator 26.0.1, SVG Export Plug-In . SVG Version: 6.00 Build 0)  -->
<svg version="1.1" id="Capa_1" xmlns="http://www.w3.org/2000/svg" xmlns:xlink="http://www.w3.org/1999/xlink" x="0px" y="0px"
	 viewBox="0 0 1184.1 285.4" style="enable-background:new 0 0 1184.1 285.4;" xml:space="preserve">
<style type="text/css">
	.st0{fill-rule:evenodd;clip-rule:evenodd;fill:#00425F;}
</style>
<g>
	<path class="st0" d="M411.9,185c-7.2,8.4-17.6,14.1-29.5,14.1c-21.1,0-38.3-17.5-38.3-39s17.1-39,38.3-39
		c12.6,0,23.9,6.1,30.8,15.8c0.8,1.1,1.2,1.1,0.1,2.6c-1.5,2-5.8,3.7-7.4,4.8c-1.6,1.1-2.9-1.1-2.9-1.1c-4.7-5.3-11.7-8.6-19.4-8.6
		c-14.3,0-25.8,11.3-25.8,25.3s11.6,25.3,25.8,25.3c7.3,0,13.9-3,18.6-7.7c0,0,1.8-2.8,3.8-1.6C408.1,177.2,415.8,180.5,411.9,185z"
		/>
	<path class="st0" d="M685,185c-7.2,8.4-17.6,14.1-29.5,14.1c-21.1,0-38.3-17.5-38.3-39s17.1-39,38.3-39c12.6,0,23.9,6.1,30.8,15.8
		c0.8,1.1,1.2,1.1,0.1,2.6c-1.5,2-5.8,3.7-7.4,4.8s-2.9-1.1-2.9-1.1c-4.7-5.3-11.7-8.6-19.4-8.6c-14.3,0-25.8,11.3-25.8,25.3
		s11.6,25.3,25.8,25.3c7.3,0,13.9-3,18.6-7.7c0,0,1.8-2.8,3.8-1.6C681.3,177.2,688.9,180.5,685,185z"/>
	<path class="st0" d="M441.6,198.6c1.1,0,2-0.9,2-2v-73.4c0-1.1-0.9-2-2-2h-10.9c-1.1,0-2,0.9-2,2v73.4c0,1.1,0.9,2,2,2H441.6z"/>
	<path class="st0" d="M1091.7,198.6c1.1,0,2-0.9,2-2v-73.4c0-1.1-0.9-2-2-2h-10.9c-1.1,0-2,0.9-2,2v73.4c0,1.1,0.9,2,2,2H1091.7z"/>
	<path class="st0" d="M803.2,123c0-1-1-1.7-2-1.7h-9.4c-1,0-1.7,0.8-1.7,1.7v56.9c0,0-2.5,18.7,21.2,18.7h17.5c1,0,1.8-0.8,1.8-1.7
		v-9.4c0-1-0.8-1.8-1.8-1.8H811c0,0-7.8,0.6-7.8-6C803.2,171.8,803.2,123,803.2,123z"/>
	<path class="st0" d="M563.8,151.2c1,0,1.8,0.7,1.8,1.7v9.4c0,1-0.8,1.6-1.8,1.6h-20.2c-5.3,0-5.2,5.2-5.2,5.2v10.1
		c0,6.9,6.8,6.2,6.8,6.2h18.5c1,0,1.8,0.8,1.8,1.8v9.4c0,1-0.8,1.8-1.8,1.8h-18.5c-20.8,0-19.8-15.6-19.8-15.6s0-54.1,0-58.3
		c0-3.7,4-3.4,4-3.4h34.3c1,0,1.8,0.8,1.8,1.8v9.4c0,1-0.8,1.7-1.8,1.7h-15H542c0,0-3.9,0.2-3.9,4.5s0,8.9,0,8.9s0.1,3.8,4.4,3.8
		L563.8,151.2L563.8,151.2z"/>
	<path class="st0" d="M510.2,148.4c0-15.1-12.2-27.3-27.2-27.3c-15,0-27.3,12.4-27.3,27.4l0,0l0,48.4c0,1,0.8,1.7,1.7,1.7h9.4
		c1,0,1.7-0.8,1.7-1.7l0-47l0,0c0-7.9,6.4-14.4,14.4-14.4c7.9,0,14.3,6.4,14.3,14.4l0,0l0,47.1c0,1,0.8,1.7,1.8,1.7h9.4
		c1,0,1.7-0.8,1.7-1.7L510.2,148.4L510.2,148.4z"/>
	<g>
		<path class="st0" d="M713.9,159.8c0-14,11.4-25.4,25.4-25.4s25.4,11.4,25.4,25.4s-11.4,25.4-25.4,25.4
			C725.3,185.2,713.9,173.8,713.9,159.8L713.9,159.8z M739.3,199.2c21.8,0,39.4-17.6,39.4-39.4c0-21.8-17.6-39.4-39.4-39.4
			s-39.4,17.6-39.4,39.4C699.9,181.6,717.5,199.2,739.3,199.2L739.3,199.2z"/>
	</g>
	<g>
		<path class="st0" d="M845.8,159.8c0-14,11.4-25.4,25.4-25.4s25.4,11.4,25.4,25.4s-11.4,25.4-25.4,25.4
			C857.1,185.2,845.8,173.8,845.8,159.8L845.8,159.8z M871.1,199.2c21.8,0,39.4-17.6,39.4-39.4c0-21.8-17.6-39.4-39.4-39.4
			s-39.4,17.6-39.4,39.4C831.7,181.6,849.4,199.2,871.1,199.2L871.1,199.2z"/>
	</g>
	<path class="st0" d="M921.8,196.8c0,1,0.9,1.7,1.8,1.7h9.4c1,0,1.7-0.8,1.7-1.7l0-53.3c0-5.1,4.2-9.3,9.3-9.3
		c5.1,0,9.3,4.1,9.3,9.3v53.3c0,1,0.8,1.7,1.8,1.7h9.4c1,0,1.8-0.8,1.8-1.7v-53.3c0-5.1,4.2-9.3,9.3-9.3c5.1,0,9.3,4.1,9.3,9.3v53.3
		c0,1,0.8,1.7,1.8,1.7h9.4c1,0,1.7-0.8,1.7-1.7v-53c0-12.1-9.8-21.8-21.9-21.8c-5.4,0-10.4,2-14.2,5.3c0,0-1,0.6-2,0.6
		s-2.1-0.7-2.1-0.7c-3.8-3.2-8.7-5.2-14.1-5.2c-12,0-21.7,9.8-21.7,21.8L921.8,196.8L921.8,196.8z"/>
	<g>
		<path class="st0" d="M1068.8,172.3c0,14.4-13,25.9-29,25.9c-16,0-29-11.7-29-26.2V123c0-1,0.8-1.8,1.8-1.8h31.4
			c8.7,0,15.7,7,15.7,15.6c0,3.2-1,6.3-2.7,8.8c0,0-1.4,3.9,1.2,5.8l0,0C1064.5,155.4,1068.8,163,1068.8,172.3L1068.8,172.3
			L1068.8,172.3z M1040,184.4c7.4,0,13.4-5.5,13.4-12.4s-6-12.4-13.4-12.4s-13.4,5.5-13.4,12.4
			C1026.6,178.8,1032.6,184.4,1040,184.4L1040,184.4L1040,184.4z M1023.8,150.4c0,3.1,1.5,2.6,1.5,2.6s2,1,3.5-3.8
			c0.8-2.5,8.3-2.6,8.3-2.6s6.6-0.6,6.6-6.6c0-7.1-6.8-7.1-6.8-7.1h-8.5c-5.2,0-4.6,3.3-4.6,3.3S1023.8,147.3,1023.8,150.4
			L1023.8,150.4z"/>
	</g>
	<g>
		<path class="st0" d="M1144,170.7c0,0,0.5-4-3.5-4c0,0-16.6,0-19,0c-4,0-3.5,4-3.5,4v26.2c0,1-0.8,1.7-1.7,1.7h-9.4
			c-1,0-1.7-0.8-1.7-1.7v-48.6c0-14.3,11.7-25.9,26-25.9s25.8,11.6,25.8,25.9v48.6c0,1-0.9,1.7-1.8,1.7h-9.4c-1,0-1.8-0.8-1.8-1.7
			L1144,170.7L1144,170.7z M1144.1,148.9c0-7.5-5.9-13.6-13.2-13.6s-13.2,6.1-13.2,13.6c0,0-0.6,3.5,5.1,3.5s16.3,0,16.3,0
			S1144.1,152.9,1144.1,148.9L1144.1,148.9z"/>
	</g>
</g>
<g>
	<path class="st0" d="M152.1,211.3c-13,6.8-27.8,10.7-43.5,10.7C56.9,222,15,180,15,128.3s41.9-93.7,93.7-93.7
		c26.2,0,50,10.8,67,28.2l-19.7,18.4c-12.1-12.1-28.8-19.6-47.3-19.6c-36.8,0-66.7,29.9-66.7,66.7S71.8,195,108.6,195
		c21.7,0,41.8-10,53.9-26c0,0,1.6-2.6,1.8-0.1s0.1,1.4,0.1,1.4c4.6,32.4,33,57.3,66.7,57.3c30.8,0,56.7-20.8,64.4-49.2l25.6,6.6
		c-10.6,40.1-47.1,69.8-90.6,69.8c-33,0-62.1-17.1-78.7-42.9L152.1,211.3z"/>
	<path class="st0" d="M166.4,144c-7.2,24.3-30.3,42.2-57.2,42.2c-32.8,0-59.3-26.2-59.3-58.6S76.4,69,109.2,69
		c16.5,0,31.4,6.7,42.2,17.4l-19.6,19.3c-5.9-6-14.1-9.7-23.1-9.7c-17.9,0-32.4,14.5-32.4,32.4s14.5,32.4,32.4,32.4
		c14.6,0,27.1-10.1,31.2-23.4l0,0c10.7-40,47.4-69.9,90.7-69.9c43.6,0,80.3,29.8,90.7,70.2l-25.5,6.7c-7.4-28.8-33.5-50.1-64.6-50.1
		C200.3,94.2,174,115.4,166.4,144L166.4,144z"/>
	<path class="st0" d="M263,169.3c-3.6,13.9-16.3,24.1-31.3,24.1c-17.9,0-32.4-14.5-32.4-32.4s14.5-32.4,32.4-32.4
		c15.1,0,27.8,10.4,31.4,24.4l26.3-6.6c-6.6-25.2-29.8-43.8-57.4-43.8c-32.8,0-59.3,26.2-59.3,58.6s26.6,58.6,59.3,58.6
		c27.4,0,50.5-18.4,57.3-43.4L263,169.3z"/>
</g>
</svg>
