<?xml version="1.0" encoding="utf-8"?>
<!-- Generator: Adobe Illustrator 26.0.1, SVG Export Plug-In . SVG Version: 6.00 Build 0)  -->
<svg version="1.1" id="Capa_1" xmlns="http://www.w3.org/2000/svg" xmlns:xlink="http://www.w3.org/1999/xlink" x="0px" y="0px"
	 viewBox="0 0 12 7" style="enable-background:new 0 0 12 7;" xml:space="preserve">
<style type="text/css">
	.st0{fill:#1C508D;}
</style>
<g>
	<g>
		<g>
			<path class="st0" d="M6.3,5.9l4.5-4.1C11,1.7,11,1.5,11,1.4c0-0.2-0.2-0.3-0.3-0.3c-0.2-0.1-0.3,0-0.4,0.1L6,4.9L1.8,1.1
				C1.6,1,1.5,1,1.3,1C1.2,1.1,1,1.2,1,1.4s0,0.3,0.1,0.4l4.5,4.1C5.8,6,5.9,6,6,6S6.2,6,6.3,5.9z"/>
		</g>
		<g>
			<path class="st0" d="M6,6.6c-0.2,0-0.4,0-0.7-0.2L5.2,6.3L0.7,2.2C0.4,1.9,0.4,1.6,0.4,1.4c0-0.4,0.3-0.7,0.4-0.8L1,0.4l0.3,0
				c0.2,0,0.4,0,0.8,0.2l0.1,0.1L6,4.1l3.9-3.4c0.3-0.3,0.6-0.4,1-0.2c0.4,0.1,0.7,0.4,0.7,0.9c0,0.5-0.2,0.8-0.4,0.9l-4.4,4
				C6.4,6.6,6.1,6.6,6,6.6z"/>
		</g>
	</g>
</g>
</svg>
