<?xml version="1.0" encoding="utf-8"?>
<!-- Generator: Adobe Illustrator 26.0.1, SVG Export Plug-In . SVG Version: 6.00 Build 0)  -->
<svg version="1.1" id="Capa_1" xmlns="http://www.w3.org/2000/svg" xmlns:xlink="http://www.w3.org/1999/xlink" x="0px" y="0px"
	 viewBox="0 0 24 25" style="enable-background:new 0 0 24 25;" xml:space="preserve">
<style type="text/css">
	.st0{fill:#FFFFFF;}
</style>
<path class="st0" d="M2,1C1.4,1,1,1.4,1,2s0.4,1,1,1V1z M4.2,2l1-0.2C5.1,1.3,4.7,1,4.2,1V2z M3.7,4.4c0.1,0.5,0.6,0.9,1.2,0.8
	C5.4,5.1,5.8,4.6,5.6,4L3.7,4.4z M6.4,12.1c-0.6,0-1,0.4-1,1c0,0.6,0.4,1,1,1V12.1z M17.6,13.1v1c0.4,0,0.7-0.2,0.9-0.6L17.6,13.1z
	 M22,4.2l0.9,0.4c0.2-0.3,0.1-0.7,0-1S22.3,3.2,22,3.2V4.2z M4.7,3.2c-0.6,0-1,0.4-1,1c0,0.6,0.4,1,1,1V3.2z M5.5,13.2
	c0.1,0.5,0.6,0.9,1.2,0.8s0.9-0.6,0.8-1.2L5.5,13.2z M5.6,4C5.5,3.5,5,3.1,4.5,3.2C3.9,3.3,3.6,3.9,3.7,4.4L5.6,4z M7.1,13.8
	c0.4-0.4,0.4-1,0-1.4c-0.4-0.4-1-0.4-1.4,0L7.1,13.8z M3.9,15.6l-0.7-0.7L3.9,15.6z M17.6,18.5c0.6,0,1-0.4,1-1c0-0.6-0.4-1-1-1
	V18.5z M17.6,17.5h-1c0,0.3,0.1,0.5,0.3,0.7L17.6,17.5z M19.8,19.7l-0.7,0.7c0.2,0.2,0.4,0.3,0.7,0.3V19.7z M8.7,19.7l-0.9-0.5
	c-0.1,0.2-0.1,0.3-0.1,0.5H8.7z M8.7,21.9h-1c0,0.2,0,0.3,0.1,0.5L8.7,21.9z M2,3h2.2V1H2V3z M3.2,2.2l0.4,2.2l2-0.4L5.2,1.8
	L3.2,2.2z M6.4,14.1h11.1v-2H6.4V14.1z M18.4,13.5l4.4-8.8l-1.8-0.9l-4.4,8.8L18.4,13.5z M22,3.2H4.7v2H22V3.2z M7.4,12.9L5.6,4
	l-2,0.4l1.8,8.8L7.4,12.9z M5.7,12.3l-2.5,2.5l1.4,1.4l2.5-2.5L5.7,12.3z M3.2,14.9c-1.3,1.3-0.4,3.6,1.5,3.6v-2c0,0-0.1,0-0.1,0
	c0,0,0,0,0-0.1c0,0,0,0,0-0.1c0,0,0,0,0-0.1L3.2,14.9z M4.7,18.5h12.9v-2H4.7V18.5z M18.6,17.5c0-0.7,0.5-1.2,1.2-1.2v-2
	c-1.8,0-3.2,1.4-3.2,3.2H18.6z M19.8,16.3c0.7,0,1.2,0.5,1.2,1.2h2c0-1.8-1.4-3.2-3.2-3.2V16.3z M21,17.5c0,0.7-0.5,1.2-1.2,1.2v2
	c1.8,0,3.2-1.4,3.2-3.2H21z M20.5,19l-2.2-2.2l-1.4,1.4l2.2,2.2L20.5,19z M9.5,20.2c0.3-0.5,0.8-0.7,1.4-0.6l0.5-1.9
	c-1.4-0.4-2.9,0.2-3.6,1.5L9.5,20.2z M10.9,19.6c0.5,0.1,0.9,0.6,0.9,1.2h2c0-1.5-1-2.7-2.4-3.1L10.9,19.6z M11.8,20.8
	c0,0.5-0.4,1-0.9,1.2l0.5,1.9c1.4-0.4,2.4-1.6,2.4-3.1H11.8z M10.9,22c-0.5,0.1-1.1-0.1-1.4-0.6l-1.7,1c0.7,1.3,2.2,1.9,3.6,1.5
	L10.9,22z M9.7,21.9v-2.2h-2v2.2H9.7z"/>
</svg>
