<?xml version="1.0" encoding="utf-8"?>
<!-- Generator: Adobe Illustrator 26.0.1, SVG Export Plug-In . SVG Version: 6.00 Build 0)  -->
<svg version="1.1" xmlns="http://www.w3.org/2000/svg" xmlns:xlink="http://www.w3.org/1999/xlink" x="0px" y="0px"
	 viewBox="0 0 1119 727" style="enable-background:new 0 0 1119 727;" xml:space="preserve">
<style type="text/css">
	.st0{fill:#FDFDFD;}
	.st1{fill:#008CD1;}
	.st2{fill:#002E6E;}
	.st3{fill:#FFFFFF;}
</style>
<g id="Layer_1">
	<g>
		<g>
			<path class="st0" d="M748.55,717.09c191.73,7.13,353.98-146.99,362.15-343.99C1118.69,180.56,962.58,14.78,766,9.79
				C575.37,4.96,410.67,151.14,403.06,354.05C395.85,546.53,550.6,709.73,748.55,717.09z"/>
			<path class="st1" d="M748.55,717.09c-197.95-7.36-352.7-170.56-345.49-363.03C410.67,151.14,575.37,4.96,766,9.79
				c196.58,4.99,352.69,170.77,344.7,363.3C1102.53,570.1,940.28,724.22,748.55,717.09z M451.14,363.02
				c-0.17,168.22,137,305.62,305.58,306.1c167.77,0.47,306.07-137.63,306.06-305.63c-0.01-168.4-136.99-305.56-305.6-306
				C589.31,57.04,451.31,194.82,451.14,363.02z"/>
			<path class="st2" d="M451.14,363.02c0.17-168.2,138.17-305.98,306.04-305.54c168.61,0.45,305.59,137.61,305.6,306
				c0.01,168-138.29,306.11-306.06,305.63C588.14,668.64,450.97,531.24,451.14,363.02z M757.74,434.24
				c-32.16,0-64.32-0.42-96.47,0.09c-53.77,0.86-98.92,33.23-116.25,81.35c-4,11.12-2.38,18.58,5.12,27.5
				c104.86,124.78,309.1,124.49,413.97-0.5c7.76-9.25,8.47-16.79,4.5-27.56c-17.58-47.67-62.06-79.83-114.38-80.8
				C822.07,433.73,789.9,434.22,757.74,434.24z M876.39,282.32c-0.3-66.37-54.14-120.03-119.93-119.52
				c-66.46,0.51-119.18,53.9-118.95,120.45c0.24,66.59,53.36,119.42,119.87,119.21C823.8,402.25,876.68,348.86,876.39,282.32z"/>
			<path class="st3" d="M757.74,434.23c32.16-0.01,64.33-0.5,96.47,0.1c52.32,0.98,96.8,33.13,114.38,80.8
				c3.97,10.76,3.27,18.3-4.5,27.56c-104.86,124.99-309.1,125.28-413.97,0.5c-7.5-8.92-9.12-16.38-5.12-27.5
				c17.33-48.12,62.48-80.5,116.25-81.35C693.42,433.82,725.58,434.24,757.74,434.23z"/>
			<path class="st3" d="M876.39,282.32c0.3,66.55-52.58,119.93-119.01,120.14c-66.51,0.21-119.63-52.62-119.87-119.21
				c-0.24-66.55,52.49-119.93,118.95-120.45C822.24,162.29,876.09,215.95,876.39,282.32z"/>
		</g>
		<path class="st1" d="M444.83,244.33H73.13C37.16,244.33,8,271.42,8,304.83v139.99c0,33.42,29.16,60.51,65.13,60.51h371.7V244.33z"
			/>
	</g>
</g>
<g id="Layer_2">
</g>
</svg>
