<?xml version="1.0" encoding="utf-8"?>
<!-- Generator: Adobe Illustrator 26.0.1, SVG Export Plug-In . SVG Version: 6.00 Build 0)  -->
<svg version="1.1" id="Capa_1" xmlns="http://www.w3.org/2000/svg" xmlns:xlink="http://www.w3.org/1999/xlink" x="0px" y="0px"
	 viewBox="0 0 13191.7 1261.3" style="enable-background:new 0 0 13191.7 1261.3;" xml:space="preserve">
<style type="text/css">
	.st0{display:none;}
	.st1{fill:#A6A6A5;}
	.st2{fill:#D2D3D5;}
	.st3{opacity:0.7;}
</style>
<g id="Capa_1_00000131353971084365998720000007359593824515026329_" class="st0">
	
		<image style="display:inline;overflow:visible;enable-background:new    ;" width="1082" height="93" xlink:href="1A71B3EC.jpeg"  transform="matrix(0.9892 0 0 0.9892 6027.5396 574.0649)">
	</image>
</g>
<g id="Capa_2_00000137855112771565088330000008775229970495951279_">
	<g>
		<rect x="177.3" y="296.6" class="st1" width="12836.9" height="504.9"/>
		<g>
			<g>
				<polygon class="st2" points="1842.5,964.7 11344.4,964.7 13014.4,801.6 177.3,801.6 				"/>
			</g>
		</g>
	</g>
	<g class="st3">
		<path d="M5431.2,457.9c12.6-2.8,29.6-4.4,46.5-4.4c26.5,0,47.2,3.8,62.2,17.7c13.6,11.9,19.7,30.9,19.7,50.2
			c0,24.7-7.5,42.1-19.3,55c-14.2,14.9-37.3,21.8-55.7,21.8c-3.1,0-6.1,0-8.8,0v85.2h-44.5V457.9H5431.2z M5475.7,561.8
			c2,0.7,4.4,0.7,7.2,0.7c22.4,0,32.6-16,32.6-37.3c0-20-8.2-35.7-28.8-35.7c-4.1,0-8.2,0.7-10.8,1.7v70.6H5475.7z"/>
		<path d="M5778.3,631.1l-10.2,52.3H5725l49.6-228.9h53.3l44.5,228.9h-43.2l-9.8-52.3H5778.3z M5815.4,596.5l-7.5-47.9
			c-2.4-13.9-5.4-36.7-7.5-52h-1c-2.4,15.2-5.7,39.1-8.2,52.3l-8.5,47.6H5815.4z"/>
		<path d="M6067.4,683.4V454.6h40.7l35.3,89.7c6.8,17.7,18,47.2,24.4,66.9h0.7c-1.3-24.1-4.4-63.8-4.4-106v-50.6h39.1v228.9h-40.7
			l-35-86.9c-7.5-19.3-18-48.2-23.1-68.9h-0.7c1,23.1,2.8,58.4,2.8,104.2v51.6H6067.4z"/>
		<path d="M6437.3,495.7h-40.4v-41.1h125.7v41.1h-40.7v187.8h-44.5V495.7H6437.3z"/>
		<path d="M6740.5,631.1l-10.2,52.3h-43.2l49.6-228.9h53.3l44.5,228.9h-43.2l-9.8-52.3H6740.5z M6777.5,596.5l-7.5-47.9
			c-2.4-13.9-5.4-36.7-7.5-52h-1c-2.4,15.2-5.7,39.1-8.2,52.3l-8.5,47.6H6777.5z"/>
		<path d="M7029.5,454.6h44.5v191.1h58.7v37.7h-103.2L7029.5,454.6L7029.5,454.6z"/>
		<path d="M7328.5,454.6h44.5v191.1h58.7v37.7h-103.2L7328.5,454.6L7328.5,454.6z"/>
		<path d="M7666.4,631.1l-10.2,52.3H7613l49.6-228.9h53.3l44.5,228.9h-43.2l-9.8-52.3H7666.4z M7703.4,596.5l-7.5-47.9
			c-2.4-13.9-5.4-36.7-7.5-52h-1c-2.4,15.2-5.7,39.1-8.2,52.3l-8.5,47.6H7703.4z"/>
	</g>
</g>
</svg>
