<?xml version="1.0" encoding="utf-8"?>
<!-- Generator: Adobe Illustrator 26.0.1, SVG Export Plug-In . SVG Version: 6.00 Build 0)  -->
<svg version="1.1" id="Capa_1" xmlns="http://www.w3.org/2000/svg" xmlns:xlink="http://www.w3.org/1999/xlink" x="0px" y="0px"
	 viewBox="0 0 595.1 575.7" style="enable-background:new 0 0 595.1 575.7;" xml:space="preserve">
<style type="text/css">
	.st0{display:none;}
	.st1{fill:url(#SVGID_1_);}
	.st2{fill:#A8A8A7;}
	.st3{fill:url(#SVGID_00000098200225685217702570000008648958054310503560_);}
	.st4{fill:url(#SVGID_00000152249449202578600680000005039017484100975284_);}
	.st5{fill:url(#SVGID_00000140698266890385350920000016516997650851919525_);}
	.st6{fill:none;stroke:#5EB130;stroke-width:15;stroke-miterlimit:10;}
	.st7{fill:none;stroke:#E30613;stroke-width:17;stroke-miterlimit:10;}
	.st8{fill:#5EB130;}
</style>
<g>
	<path d="M134.9,555.7c-37.4,0-67.8-30.4-67.8-67.8v-1c0-37.4,30.4-67.8,67.8-67.8h323c37.4,0,67.8,30.4,67.8,67.8v1
		c0,37.4-30.4,67.8-67.8,67.8H134.9z"/>
	<path d="M82.4,483.8c-4.1,0-8-2-10.4-5.3c-2.4-3.3-3.2-7.6-2-11.5c8.8-28.7,34.8-47.9,64.8-47.9h323c30,0,56,19.2,64.8,47.9
		c1.2,3.9,0.5,8.2-2,11.5c-2.5,3.3-6.3,5.3-10.4,5.3H82.4z"/>
	<path d="M512.7,455.9c-4.2,0-8.2-2-10.7-5.6c-10.7-15.4-35.2-18.1-38.3-18.4h-329c-29,1.7-38.5,10.7-39.7,14c0.2-0.6,0.2-1,0.2-1
		l-12.8-2h-13v-268c0-36,11.6-70.8,32.6-98.1c5.1-6.6,10.7-12.8,16.7-18.4C145.2,33.6,180.6,20,218.4,20h171.9c0.2,0,0.4,0,0.5,0
		c39.9,1.6,73.1,18.2,98.8,49.2c23.2,28,36,64.4,36,102.4v271.3c0,5.7-3.7,10.7-9.1,12.4C515.3,455.7,514,455.9,512.7,455.9z"/>
	<path d="M56.8,495c-4,0-7.8-1.9-10.3-5.1l-20.7-27c-12.1-15.8-18.8-35.4-18.9-55.3C6.5,354,6,226.2,6.8,200.2
		c0.3-9.3,1.9-17.7,4.9-24.8c6-14.3,20.4-23.9,35.9-23.9c6.5,0,12.9,1.7,18.5,4.9c13.6,7.7,16.6,21.1,16.2,28.3v297.3
		c0,7.2-5.8,13-13,13L56.8,495L56.8,495z"/>
	<path d="M525.7,495c-7.2,0-13-5.8-13-13V184.8c-0.3-7.2,2.7-20.6,16.2-28.3c5.6-3.2,12-4.9,18.5-4.9c15.5,0,29.9,9.6,35.9,23.9
		c3,7.1,4.6,15.4,4.9,24.8c0.8,26,0.3,153.8,0,207.5c-0.1,19.9-6.8,39.5-18.9,55.3l-20.7,27c-2.5,3.2-6.3,5.1-10.3,5.1L525.7,495
		L525.7,495z"/>
	
		<linearGradient id="SVGID_1_" gradientUnits="userSpaceOnUse" x1="296.3551" y1="147.5106" x2="296.3551" y2="-36.157" gradientTransform="matrix(1 0 0 -1 0 578)">
		<stop  offset="0" style="stop-color:#FFFFFF"/>
		<stop  offset="9.830000e-02" style="stop-color:#FAFAFA"/>
		<stop  offset="0.2222" style="stop-color:#EAEAEA"/>
		<stop  offset="0.36" style="stop-color:#D0D0D0"/>
		<stop  offset="0.5078" style="stop-color:#ACACAC"/>
		<stop  offset="0.6636" style="stop-color:#7E7E7E"/>
		<stop  offset="0.8261" style="stop-color:#454545"/>
		<stop  offset="0.9913" style="stop-color:#040404"/>
		<stop  offset="1" style="stop-color:#000000"/>
	</linearGradient>
	<path class="st1" d="M457.9,542.7h-323c-30.3,0-54.8-24.5-54.8-54.8v-1c0-30.3,24.6-54.8,54.8-54.8h323c30.3,0,54.8,24.5,54.8,54.8
		v1C512.7,518.1,488.1,542.7,457.9,542.7z"/>
	<path class="st2" d="M82.4,470.8h427.8c-6.9-22.4-27.8-38.7-52.4-38.7h-323C110.2,432,89.3,448.3,82.4,470.8z"/>
	
		<linearGradient id="SVGID_00000013874138967052805210000006901510498888862634_" gradientUnits="userSpaceOnUse" x1="297.575" y1="544.0038" x2="297.575" y2="-86.2406" gradientTransform="matrix(1 0 0 -1 0 578)">
		<stop  offset="0" style="stop-color:#FFFFFF"/>
		<stop  offset="9.010001e-02" style="stop-color:#F8F8F8"/>
		<stop  offset="0.2167" style="stop-color:#E6E6E6"/>
		<stop  offset="0.3648" style="stop-color:#C8C8C8"/>
		<stop  offset="0.5295" style="stop-color:#9E9E9E"/>
		<stop  offset="0.7077" style="stop-color:#686868"/>
		<stop  offset="0.8943" style="stop-color:#282828"/>
		<stop  offset="1" style="stop-color:#000000"/>
	</linearGradient>
	<path style="fill:url(#SVGID_00000013874138967052805210000006901510498888862634_);" d="M82.4,442.9c0,0,3.3-21.2,51.9-24h329.9
		c0,0,33.3,2,48.5,24V171.6c0-34.2-11.2-67.8-33-94.1c-18.8-22.6-47.2-42.8-89.3-44.5H218.4c-33.5,0-66.3,12-90.7,34.9
		c-5.3,4.9-10.4,10.5-15.3,16.9c-19.8,25.7-29.9,57.7-29.9,90.1L82.4,442.9L82.4,442.9z"/>
	
		<linearGradient id="SVGID_00000070800025757015288730000018273192405030079382_" gradientUnits="userSpaceOnUse" x1="44.4094" y1="76.2721" x2="44.4094" y2="598.838" gradientTransform="matrix(1 0 0 -1 0 578)">
		<stop  offset="0" style="stop-color:#FFFFFF"/>
		<stop  offset="9.010001e-02" style="stop-color:#F8F8F8"/>
		<stop  offset="0.2167" style="stop-color:#E6E6E6"/>
		<stop  offset="0.3648" style="stop-color:#C8C8C8"/>
		<stop  offset="0.5295" style="stop-color:#9E9E9E"/>
		<stop  offset="0.7077" style="stop-color:#686868"/>
		<stop  offset="0.8943" style="stop-color:#282828"/>
		<stop  offset="1" style="stop-color:#000000"/>
	</linearGradient>
	<path style="fill:url(#SVGID_00000070800025757015288730000018273192405030079382_);" d="M69.4,482.1V184.4c0,0,0.8-10.7-9.7-16.7
		c-13.2-7.5-30.2-1.2-36,12.8c-2.1,5.1-3.7,11.6-3.9,20.2c-0.8,25.6-0.3,151.5,0,207c0.1,17.2,5.8,33.8,16.2,47.4l20.7,27
		L69.4,482.1L69.4,482.1z"/>
	
		<linearGradient id="SVGID_00000059268119398920836260000017172593113085653393_" gradientUnits="userSpaceOnUse" x1="-2949.9619" y1="76.2721" x2="-2949.9619" y2="598.838" gradientTransform="matrix(-1 0 0 -1 -2399.2412 578)">
		<stop  offset="0" style="stop-color:#FFFFFF"/>
		<stop  offset="9.010001e-02" style="stop-color:#F8F8F8"/>
		<stop  offset="0.2167" style="stop-color:#E6E6E6"/>
		<stop  offset="0.3648" style="stop-color:#C8C8C8"/>
		<stop  offset="0.5295" style="stop-color:#9E9E9E"/>
		<stop  offset="0.7077" style="stop-color:#686868"/>
		<stop  offset="0.8943" style="stop-color:#282828"/>
		<stop  offset="1" style="stop-color:#000000"/>
	</linearGradient>
	<path style="fill:url(#SVGID_00000059268119398920836260000017172593113085653393_);" d="M525.7,482.1V184.4c0,0-0.8-10.7,9.7-16.7
		c13.2-7.5,30.2-1.2,36,12.8c2.1,5.1,3.7,11.6,3.9,20.2c0.8,25.6,0.3,151.5,0,207c-0.1,17.2-5.8,33.8-16.2,47.4l-20.7,27
		L525.7,482.1L525.7,482.1z"/>
</g>
</svg>
