<?xml version="1.0" encoding="utf-8"?>
<!-- Generator: Adobe Illustrator 26.0.1, SVG Export Plug-In . SVG Version: 6.00 Build 0)  -->
<svg version="1.1" id="Capa_1" xmlns="http://www.w3.org/2000/svg" xmlns:xlink="http://www.w3.org/1999/xlink" x="0px" y="0px"
	 viewBox="0 0 595.1 575.7" style="enable-background:new 0 0 595.1 575.7;" xml:space="preserve">
<style type="text/css">
	.st0{display:none;}
	.st1{fill:none;stroke:#5EB130;stroke-width:15;stroke-miterlimit:10;}
	.st2{fill:#5EB130;}
</style>
<g>
	<g>
		<circle class="st1" cx="297.6" cy="287.8" r="276.9"/>
	</g>
	<g>
		<path class="st2" d="M108,387.4c7.8,3.3,15.5,6.9,23.2,10.6l11.4,5.3l5.7,2.5c1.9,0.8,3.8,1.7,5.8,2.4c15.4,6.3,31,11.7,46.8,16
			c31.6,8.5,64.1,13,96.6,12.8c8.1,0.1,16.2-0.3,24.3-0.9c2-0.1,4-0.3,6.1-0.5c2-0.2,4-0.3,6.1-0.5l6-0.7l3-0.4l3-0.4
			c16.1-2.2,32.1-5.5,47.9-9.9c15.8-4.4,31.4-9.8,46.7-16.2c1.9-0.8,3.8-1.6,5.7-2.4c1.9-0.8,3.8-1.7,5.7-2.5
			c3.9-1.7,7.7-3.5,11.6-5.2c7.8-3.4,15.6-6.8,23.5-9.9c-6.6,5.3-13.4,10.4-20.3,15.5c-3.4,2.5-6.8,5-10.3,7.5
			c-1.8,1.2-3.5,2.4-5.3,3.6c-1.8,1.2-3.5,2.4-5.4,3.5c-14.5,9.2-30.1,17-46.2,23.4c-32.4,12.5-67.3,19.2-102.2,19.2
			c-35,0.2-69.9-6.3-102.3-18.7c-16.2-6.3-31.8-14-46.3-23.2c-1.8-1.1-3.6-2.3-5.4-3.5c-1.8-1.2-3.6-2.4-5.3-3.6
			c-3.5-2.5-6.9-5-10.3-7.6C121.1,398.2,114.4,392.9,108,387.4z"/>
	</g>
	<g>
		<path class="st2" d="M432.6,210.1c-1.8-0.3-3.5-0.7-5.2-1.1c-1.7-0.4-3.3-0.8-4.9-1.2c-3.2-0.7-6.3-1.4-9.4-1.9
			c-6.2-1-12.2-1.6-18.2-1.5c-6,0-12,0.6-18.2,1.6c-3.1,0.6-6.2,1.1-9.4,1.9l-2.4,0.6c-0.8,0.2-1.7,0.4-2.5,0.6
			c-1.7,0.4-3.5,0.7-5.3,1c1.1-1.5,2.3-2.8,3.5-4.1c0.6-0.7,1.2-1.3,1.8-1.9c0.6-0.6,1.3-1.2,2-1.8c2.7-2.4,5.8-4.3,9.1-6
			c6.6-3.2,14-4.8,21.4-4.9c7.4-0.1,14.8,1.6,21.4,4.8c3.3,1.6,6.4,3.6,9.2,5.9c1.4,1.2,2.7,2.5,3.9,3.8
			C430.4,207.3,431.6,208.6,432.6,210.1z"/>
	</g>
	<g>
		<path class="st2" d="M234.2,210.1c-1.8-0.3-3.5-0.7-5.2-1.1c-1.7-0.4-3.3-0.8-4.9-1.2c-3.2-0.7-6.3-1.4-9.4-1.9
			c-6.2-1-12.2-1.6-18.2-1.5c-6,0-12,0.6-18.2,1.6c-3.1,0.6-6.2,1.1-9.4,1.9l-2.4,0.6c-0.8,0.2-1.7,0.4-2.5,0.6
			c-1.7,0.4-3.4,0.7-5.3,1c1.1-1.5,2.3-2.8,3.4-4.1c0.6-0.7,1.2-1.3,1.8-1.9c0.6-0.6,1.3-1.2,2-1.8c2.7-2.4,5.8-4.3,9.1-6
			c6.6-3.2,14-4.8,21.4-4.9c7.4-0.1,14.8,1.6,21.4,4.8c3.3,1.6,6.4,3.6,9.1,5.9c1.4,1.2,2.7,2.5,3.9,3.8
			C232.1,207.3,233.2,208.6,234.2,210.1z"/>
	</g>
	<g>
		<path class="st2" d="M297.6,280.5c1.7,4.9,2.5,9.8,3.1,14.7c0.6,4.9,0.9,9.8,0.9,14.7c0,4.9-0.3,9.8-0.8,14.7
			c-0.6,4.9-1.5,9.8-3.2,14.7c-1.7-4.9-2.5-9.8-3.1-14.7c-0.6-4.9-0.9-9.8-0.9-14.7c0-4.9,0.3-9.8,0.9-14.7
			C295.1,290.4,295.9,285.5,297.6,280.5z"/>
	</g>
</g>
</svg>
